<svg version="1.1" id="Layer_1" xmlns="http://www.w3.org/2000/svg" xmlns:xlink="http://www.w3.org/1999/xlink" x="0px" y="0px"
	 width="128px" height="128px" viewBox="0 0 128 128" style="enable-background:new 0 0 128 128;" xml:space="preserve">
<style type="text/css">
	.st0{fill:#2E3C37;}
	.st1{fill:#3EE684;enable-background:new    ;}
	.st2{fill:#35BD6C;enable-background:new    ;}
	.st3{fill:#2D9E59;}
	.st4{fill:none;stroke:#FFFFFF;stroke-width:1.1341;stroke-miterlimit:10;enable-background:new    ;}
	.st5{fill:#FFFFFF;}
	.st6{fill:none;stroke:#FFFFFF;stroke-width:0.567;stroke-miterlimit:10;enable-background:new    ;}
</style>
<rect y="-1.2" class="st0" width="128" height="129.4"/>
<circle class="st1" cx="64" cy="64" r="49.5"/>
<circle class="st2" cx="64" cy="64" r="42.3"/>
<circle class="st3" cx="64" cy="64" r="35.5"/>
<rect x="56.8" y="81.8" class="st4" width="14.4" height="6.4"/>
<rect x="55.2" y="78.8" class="st4" width="17.6" height="2.6"/>
<rect x="56.8" y="76.4" class="st4" width="14.4" height="2.4"/>
<g>
	<path class="st5" d="M63.2,42.4v17.4c-1.1,0.3-1.9,1.4-1.9,2.6c0,1.5,1.2,2.7,2.7,2.7c1.5,0,2.7-1.2,2.7-2.7c0-1.2-0.8-2.2-1.9-2.6
		V42.4l9.3,23.8c0,0-0.4-0.1-0.9-0.1c-1.4,0-4,0.7-4,6v3h-5.1h-0.2h-5.1v-3c0-5.3-2.6-6-4-6c-0.5,0-0.9,0.1-0.9,0.1L63.2,42.4
		 M63.9,37.8v0.3l-1.5,3.9l-9.3,23.8l-0.6,1.6l1.6-0.5l0,0c0,0,0.3-0.1,0.7-0.1c2.6,0,3.2,2.8,3.2,5.2v3V76h0.9h5.1h0.2h5.1H70v-0.9
		v-3c0-2.4,0.6-5.2,3.2-5.2c0.4,0,0.7,0.1,0.7,0.1l1.6,0.4l-0.6-1.6l-9.3-23.8l-1.5-3.9v-0.3L64,38L63.9,37.8L63.9,37.8z M64,64.2
		c-1,0-1.9-0.8-1.9-1.9c0-0.8,0.5-1.5,1.3-1.8l0.5-0.2l0.5,0.2c0.8,0.2,1.3,1,1.3,1.8C65.9,63.3,65,64.2,64,64.2L64,64.2z"/>
</g>
<line class="st6" x1="64" y1="81.8" x2="64" y2="88.3"/>
</svg>
